<svg width="48" height="48" viewBox="0 0 48 48" fill="none" xmlns="http://www.w3.org/2000/svg">
  <path d="M19.8315 10.7197H16.2395C16.045 10.7197 15.9055 10.8587 15.9055 10.9702V25.4767L5.63155 10.8032C5.60355 10.7477 5.43655 10.7197 5.38055 10.7197H1.67755C1.53805 10.7197 1.39905 10.8587 1.39905 10.9702V27.6487H5.65905V18.2377L15.9055 32.9112C15.9335 32.9667 16.1005 32.9947 16.156 32.9947H19.8315C20.0265 32.9947 20.138 32.8557 20.138 32.7442V10.9702C20.138 10.8587 20.0265 10.7197 19.8315 10.7197Z" fill="black"/>
  <path d="M32.9623 29.5952H24.2194V24.5557H30.5399V20.5182H20.2659C20.0984 20.5182 19.9594 20.6572 19.9594 20.7687V42.5427C19.9594 42.6542 20.0984 42.7932 20.2659 42.7932H24.2194V33.6327H32.9623C33.1293 33.6327 33.2688 33.4932 33.2688 33.3822V29.8457C33.2688 29.7067 33.1293 29.5952 32.9623 29.5952Z" fill="black"/>
  <path d="M46.354 33.2194L37.8895 11.4454C37.806 11.2229 37.416 11.2229 37.3325 11.4454L28.896 33.2194C28.8125 33.3864 28.9235 33.5534 29.1745 33.5534H32.989C33.1005 33.5534 33.2395 33.4979 33.2675 33.3864L37.611 20.9679L42.0105 33.3864C42.038 33.4979 42.1775 33.5534 42.261 33.5534H46.1035C46.298 33.5534 46.4375 33.3864 46.354 33.2194Z" fill="black"/>
</svg>
